<svg width="22" height="22" viewBox="0 0 22 22" fill="none" xmlns="http://www.w3.org/2000/svg">
  <path d="M17 6H9C8.44772 6 8 6.44772 8 7C8 7.55228 8.44772 8 9 8H17C17.5523 8 18 7.55228 18 7C18 6.44772 17.5523 6 17 6Z" fill="#899CA8"/>
  <path d="M13 10H9C8.44772 10 8 10.4477 8 11C8 11.5523 8.44772 12 9 12H13C13.5523 12 14 11.5523 14 11C14 10.4477 13.5523 10 13 10Z" fill="#899CA8"/>
  <path d="M6 11C6 10.4477 5.55228 10 5 10C4.44772 10 4 10.4477 4 11C4 11.5523 4.44772 12 5 12C5.55228 12 6 11.5523 6 11Z" fill="#899CA8"/>
  <path d="M6 15C6 14.4477 5.55228 14 5 14C4.44772 14 4 14.4477 4 15C4 15.5523 4.44772 16 5 16C5.55228 16 6 15.5523 6 15Z" fill="#899CA8"/>
  <path d="M6 7C6 6.44772 5.55228 6 5 6C4.44772 6 4 6.44772 4 7C4 7.55228 4.44772 8 5 8C5.55228 8 6 7.55228 6 7Z" fill="#899CA8"/>
  <path d="M13 14H9C8.44772 14 8 14.4477 8 15C8 15.5523 8.44772 16 9 16H13C13.5523 16 14 15.5523 14 15C14 14.4477 13.5523 14 13 14Z" fill="#899CA8"/>
</svg>
