<svg width="14" height="14" viewBox="0 0 14 14" fill="none" xmlns="http://www.w3.org/2000/svg">
  <path d="M6.37897 4.20483e-06C7.58508 -0.0013808 8.76683 0.339411 9.787 0.982804C10.8072 1.6262 11.6239 2.54579 12.1423 3.6348C12.6607 4.7238 12.8596 5.93753 12.7158 7.13504C12.572 8.33254 12.0915 9.46469 11.33 10.4L14 13.067L13.067 14L10.4 11.33C9.60734 11.9734 8.67185 12.4171 7.67213 12.6238C6.67241 12.8306 5.63767 12.7943 4.65487 12.5181C3.67206 12.2419 2.76992 11.7339 2.02425 11.0366C1.27859 10.3393 0.711194 9.47327 0.369752 8.51119C0.0283096 7.5491 -0.0772009 6.51912 0.0620877 5.50779C0.201376 4.49646 0.581394 3.53334 1.1702 2.69938C1.75901 1.86542 2.5394 1.18498 3.4458 0.715254C4.35219 0.245529 5.35809 0.000240354 6.37897 4.20483e-06ZM6.37897 11.438C7.37954 11.438 8.35765 11.1413 9.1896 10.5854C10.0215 10.0295 10.67 9.23941 11.0529 8.315C11.4358 7.39059 11.536 6.37339 11.3408 5.39204C11.1456 4.41069 10.6637 3.50926 9.95622 2.80175C9.24871 2.09424 8.34728 1.61241 7.36593 1.41721C6.38458 1.22201 5.36738 1.32219 4.44297 1.7051C3.51856 2.088 2.72845 2.73643 2.17256 3.56837C1.61667 4.40032 1.31997 5.37843 1.31997 6.379C1.32156 7.72025 1.85507 9.0061 2.80347 9.9545C3.75187 10.9029 5.03772 11.4364 6.37897 11.438Z" fill="#899CA8"/>
</svg>
