<svg width="12" height="12" viewBox="0 0 12 12" fill="none" xmlns="http://www.w3.org/2000/svg">
  <path d="M6 12C9.31371 12 12 9.31371 12 6C12 2.68629 9.31371 0 6 0C2.68629 0 0 2.68629 0 6C0 9.31371 2.68629 12 6 12Z" fill="#14BC6E"/>
  <path d="M8.76792 5.05738L5.93949 7.88581C5.79507 8.03022 5.60089 8.09453 5.41215 8.07874C5.2236 8.09435 5.02968 8.03002 4.88542 7.88576L3.4712 6.47155C3.21085 6.2112 3.21085 5.78909 3.4712 5.52874C3.73155 5.26839 4.15366 5.26839 4.41401 5.52874L5.41248 6.5272L7.82511 4.11457C8.08546 3.85423 8.50757 3.85423 8.76792 4.11457C9.02826 4.37492 9.02826 4.79703 8.76792 5.05738Z" fill="white"/>
</svg>
